<?xml version="1.0" encoding="utf-8"?>
<!-- Generator: Adobe Illustrator 23.0.3, SVG Export Plug-In . SVG Version: 6.00 Build 0)  -->
<svg version="1.1" id="Layer_1" xmlns="http://www.w3.org/2000/svg" xmlns:xlink="http://www.w3.org/1999/xlink" x="0px" y="0px"
	 viewBox="0 0 24 24" style="enable-background:new 0 0 24 24;" xml:space="preserve">
<path d="M23,12c0-1.78-0.43-3.45-1.18-4.94C22.24,6.48,22.5,5.77,22.5,5c0-1.93-1.57-3.5-3.5-3.5c-0.77,0-1.48,0.26-2.06,0.68
	C15.45,1.43,13.78,1,12,1S8.55,1.43,7.06,2.18C6.48,1.76,5.77,1.5,5,1.5C3.07,1.5,1.5,3.07,1.5,5c0,0.77,0.26,1.48,0.68,2.06
	C1.43,8.55,1,10.22,1,12s0.43,3.45,1.18,4.94C1.76,17.52,1.5,18.23,1.5,19c0,1.93,1.57,3.5,3.5,3.5c0.77,0,1.48-0.26,2.06-0.68
	C8.55,22.57,10.22,23,12,23s3.45-0.43,4.94-1.18c0.58,0.42,1.29,0.68,2.06,0.68c1.93,0,3.5-1.57,3.5-3.5c0-0.77-0.26-1.48-0.68-2.06
	C22.57,15.45,23,13.78,23,12z M8.28,20.19C8.41,19.82,8.5,19.42,8.5,19c0-1.93-1.57-3.5-3.5-3.5c-0.42,0-0.82,0.09-1.19,0.22
	C3.3,14.59,3,13.33,3,12s0.3-2.59,0.81-3.72C4.18,8.41,4.58,8.5,5,8.5c1.93,0,3.5-1.57,3.5-3.5c0-0.42-0.09-0.82-0.22-1.19
	C9.41,3.3,10.67,3,12,3s2.59,0.3,3.72,0.81C15.59,4.18,15.5,4.58,15.5,5c0,1.93,1.57,3.5,3.5,3.5c0.42,0,0.82-0.09,1.19-0.22
	C20.7,9.41,21,10.67,21,12s-0.3,2.59-0.81,3.72c-0.37-0.14-0.77-0.22-1.19-0.22c-1.93,0-3.5,1.57-3.5,3.5
	c0,0.42,0.09,0.82,0.22,1.19C14.59,20.7,13.33,21,12,21S9.41,20.7,8.28,20.19z"/>
</svg>
